<svg width="72" height="71" viewBox="0 0 72 71" fill="none" xmlns="http://www.w3.org/2000/svg">
<g id="Group 17481">
<g id="Group 17920">
<g id="Ellipse 58" filter="url(#filter0_d_3_132)">
<path d="M35.8571 44.1429C45.246 44.1429 52.8571 36.5317 52.8571 27.1429C52.8571 17.754 45.246 10.1429 35.8571 10.1429C26.4683 10.1429 18.8571 17.754 18.8571 27.1429C18.8571 36.5317 26.4683 44.1429 35.8571 44.1429Z" fill="#FE724C"/>
</g>
<path id="Path 3414" d="M43.2526 25.0968C43.1738 24.4166 42.8484 23.7855 42.3345 23.3158C41.8206 22.8461 41.1515 22.5682 40.446 22.5316V22.3316C40.4466 21.7627 40.3312 21.1994 40.1063 20.6738C39.8815 20.1482 39.5517 19.6708 39.1359 19.2691C38.7209 18.8662 38.2278 18.5467 37.6851 18.3289C37.1423 18.1111 36.5605 17.9993 35.973 18C34.7871 18.0004 33.6499 18.457 32.8114 19.2694C31.9728 20.0818 31.5015 21.1836 31.5011 22.3325V22.5347C30.8049 22.5826 30.148 22.8654 29.6447 23.3337C29.1414 23.8021 28.8235 24.4264 28.746 25.0984L28 31.682C28.0037 32.5648 28.3688 33.41 29.0152 34.0321C29.6617 34.6542 30.5367 35.0023 31.4479 35H40.5523C41.4635 35.0023 42.3383 34.6542 42.9848 34.0321C43.6312 33.41 43.9963 32.5648 44 31.682L43.2526 25.0968ZM32.8144 22.3396C32.8142 21.9378 32.8958 21.5398 33.0544 21.1686C33.2131 20.7973 33.4458 20.46 33.739 20.1758C34.0323 19.8916 34.3803 19.6661 34.7635 19.5123C35.1467 19.3585 35.5574 19.2795 35.9722 19.2795C36.3871 19.2791 36.7979 19.358 37.1812 19.5119C37.5644 19.6657 37.9127 19.8912 38.2058 20.1757C38.4996 20.4596 38.7325 20.7968 38.8914 21.1682C39.0503 21.5395 39.132 21.9376 39.1317 22.3396V22.5252H32.8144V22.3396ZM33.4374 26.8403C33.3332 26.8404 33.2299 26.8206 33.1336 26.782C33.0373 26.7434 32.9498 26.6868 32.8761 26.6154C32.8024 26.544 32.744 26.4592 32.7042 26.3659C32.6644 26.2726 32.6439 26.1726 32.644 26.0717C32.6439 25.9707 32.6644 25.8707 32.7042 25.7774C32.744 25.6841 32.8024 25.5993 32.8761 25.5279C32.9498 25.4565 33.0373 25.3999 33.1336 25.3614C33.2299 25.3228 33.3332 25.303 33.4374 25.3031C33.5418 25.3029 33.6452 25.3225 33.7416 25.3611C33.8381 25.3996 33.9258 25.4561 33.9997 25.5275C34.0736 25.5989 34.1323 25.6837 34.1724 25.777C34.2125 25.8704 34.2331 25.9706 34.2332 26.0717C34.2331 26.1728 34.2125 26.2729 34.1724 26.3662C34.1323 26.4596 34.0736 26.5444 33.9997 26.6157C33.9258 26.6871 33.8381 26.7437 33.7416 26.7822C33.6452 26.8207 33.5418 26.8405 33.4374 26.8403ZM38.5644 26.8403C38.46 26.8405 38.3566 26.8207 38.2602 26.7822C38.1637 26.7437 38.076 26.6871 38.0021 26.6157C37.9282 26.5444 37.8695 26.4596 37.8294 26.3662C37.7893 26.2729 37.7687 26.1728 37.7686 26.0717C37.7687 25.9706 37.7893 25.8704 37.8294 25.777C37.8695 25.6837 37.9282 25.5989 38.0021 25.5275C38.076 25.4561 38.1637 25.3996 38.2602 25.3611C38.3566 25.3225 38.46 25.3029 38.5644 25.3031C38.6686 25.303 38.7717 25.3228 38.868 25.3614C38.9643 25.3999 39.052 25.4565 39.1257 25.5279C39.1994 25.5993 39.2578 25.6841 39.2976 25.7774C39.3374 25.8707 39.3579 25.9707 39.3578 26.0717C39.3579 26.1726 39.3374 26.2726 39.2976 26.3659C39.2578 26.4592 39.1994 26.544 39.1257 26.6154C39.052 26.6868 38.9643 26.7434 38.868 26.782C38.7717 26.8206 38.6686 26.8404 38.5644 26.8403Z" fill="white"/>
</g>
</g>
<defs>
<filter id="filter0_d_3_132" x="0.64286" y="0.428571" width="70.4286" height="70.4286" filterUnits="userSpaceOnUse" color-interpolation-filters="sRGB">
<feFlood flood-opacity="0" result="BackgroundImageFix"/>
<feColorMatrix in="SourceAlpha" type="matrix" values="0 0 0 0 0 0 0 0 0 0 0 0 0 0 0 0 0 0 127 0" result="hardAlpha"/>
<feOffset dy="8.5"/>
<feGaussianBlur stdDeviation="9.10714"/>
<feColorMatrix type="matrix" values="0 0 0 0 0.996078 0 0 0 0 0.447059 0 0 0 0 0.298039 0 0 0 0.4 0"/>
<feBlend mode="normal" in2="BackgroundImageFix" result="effect1_dropShadow_3_132"/>
<feBlend mode="normal" in="SourceGraphic" in2="effect1_dropShadow_3_132" result="shape"/>
</filter>
</defs>
</svg>
